<svg width="368" height="68" viewBox="0 0 368 68" fill="none" xmlns="http://www.w3.org/2000/svg">
<path d="M104.462 26.8047H103.115C102.998 26.3359 102.783 25.7826 102.47 25.1445C102.171 24.4935 101.832 23.8815 101.455 23.3086C101.064 22.7096 100.634 22.1888 100.166 21.7461C99.7098 21.2904 99.2671 21.0299 98.8374 20.9648C98.4338 20.9128 97.9259 20.8737 97.314 20.8477C96.702 20.8216 96.1356 20.8086 95.6147 20.8086H94.4819V42.9766C94.4819 43.4062 94.5731 43.8034 94.7554 44.168C94.9377 44.5195 95.2567 44.793 95.7124 44.9883C95.9468 45.0794 96.4351 45.2031 97.1772 45.3594C97.9325 45.5156 98.5184 45.6003 98.9351 45.6133V47H85.8491V45.6133C86.2137 45.5872 86.7671 45.5352 87.5093 45.457C88.2645 45.3789 88.7853 45.2812 89.0718 45.1641C89.5015 44.9948 89.814 44.7539 90.0093 44.4414C90.2176 44.1159 90.3218 43.6862 90.3218 43.1523V20.8086H89.189C88.7853 20.8086 88.284 20.8216 87.6851 20.8477C87.0861 20.8607 86.5132 20.8997 85.9663 20.9648C85.5366 21.0169 85.0874 21.2773 84.6187 21.7461C84.1629 22.2018 83.7397 22.7227 83.3491 23.3086C82.9585 23.8945 82.6134 24.5195 82.314 25.1836C82.0145 25.8346 81.8062 26.375 81.689 26.8047H80.3218V19.2852H104.462V26.8047ZM124.97 37.1758C124.97 38.5299 124.755 39.8646 124.326 41.1797C123.896 42.4818 123.284 43.5885 122.49 44.5C121.591 45.5417 120.55 46.3164 119.365 46.8242C118.18 47.332 116.852 47.5859 115.38 47.5859C114.156 47.5859 112.991 47.3581 111.884 46.9023C110.778 46.4336 109.794 45.7565 108.935 44.8711C108.089 43.9987 107.412 42.9375 106.904 41.6875C106.409 40.4245 106.162 39.0117 106.162 37.4492C106.162 34.4414 107.034 31.9805 108.779 30.0664C110.537 28.1523 112.835 27.1953 115.673 27.1953C118.369 27.1953 120.589 28.1068 122.333 29.9297C124.091 31.7396 124.97 34.1549 124.97 37.1758ZM120.927 37.2148C120.927 36.2383 120.83 35.2096 120.634 34.1289C120.439 33.0352 120.146 32.1107 119.755 31.3555C119.339 30.5482 118.792 29.9036 118.115 29.4219C117.438 28.9271 116.611 28.6797 115.634 28.6797C114.632 28.6797 113.772 28.9271 113.056 29.4219C112.353 29.9167 111.78 30.5938 111.337 31.4531C110.921 32.2474 110.628 33.1523 110.458 34.168C110.289 35.1836 110.205 36.1667 110.205 37.1172C110.205 38.3672 110.302 39.526 110.498 40.5938C110.706 41.6484 111.031 42.5924 111.474 43.4258C111.917 44.2591 112.47 44.9167 113.134 45.3984C113.811 45.8672 114.645 46.1016 115.634 46.1016C117.262 46.1016 118.551 45.3138 119.501 43.7383C120.452 42.1628 120.927 39.9883 120.927 37.2148ZM148.857 46.6484L142.138 47.0781L141.845 46.8047V45.0078L141.689 44.9688C141.012 45.724 140.172 46.3424 139.169 46.8242C138.18 47.306 137.158 47.5469 136.103 47.5469C135.009 47.5469 133.948 47.306 132.919 46.8242C131.904 46.3294 131.018 45.6393 130.263 44.7539C129.495 43.8555 128.883 42.7747 128.427 41.5117C127.985 40.2487 127.763 38.8555 127.763 37.332C127.763 35.9388 128.004 34.6172 128.486 33.3672C128.968 32.1172 129.632 31.0234 130.478 30.0859C131.272 29.2135 132.242 28.5169 133.388 27.9961C134.547 27.4753 135.725 27.2148 136.923 27.2148C137.822 27.2148 138.701 27.332 139.56 27.5664C140.432 27.7878 141.181 28.0742 141.806 28.4258V21.7266C141.806 21.1797 141.715 20.6849 141.533 20.2422C141.35 19.7865 141.097 19.4414 140.771 19.207C140.406 18.9596 139.912 18.7839 139.287 18.6797C138.675 18.5625 138.011 18.4779 137.294 18.4258V17.2148L145.166 16.7656L145.458 17.0586V43.0352C145.458 43.4909 145.543 43.8815 145.712 44.207C145.895 44.5195 146.155 44.7865 146.494 45.0078C146.741 45.1641 147.099 45.2617 147.568 45.3008C148.037 45.3398 148.466 45.3659 148.857 45.3789V46.6484ZM141.806 43.2695V32C141.702 31.6615 141.533 31.2969 141.298 30.9062C141.064 30.5156 140.771 30.1576 140.419 29.832C140.042 29.5065 139.599 29.2396 139.091 29.0312C138.583 28.8099 137.991 28.6992 137.314 28.6992C136.533 28.6992 135.81 28.901 135.146 29.3047C134.495 29.7083 133.916 30.2878 133.408 31.043C132.926 31.7721 132.542 32.7031 132.255 33.8359C131.982 34.9557 131.845 36.1992 131.845 37.5664C131.845 38.6602 131.949 39.6562 132.158 40.5547C132.366 41.4401 132.718 42.2669 133.212 43.0352C133.668 43.7643 134.248 44.3503 134.951 44.793C135.667 45.2357 136.513 45.457 137.49 45.457C138.531 45.457 139.391 45.2292 140.068 44.7734C140.758 44.3177 141.337 43.8164 141.806 43.2695ZM168.974 46.6484C168.362 46.8698 167.822 47.0456 167.353 47.1758C166.897 47.319 166.376 47.3906 165.791 47.3906C164.775 47.3906 163.961 47.1562 163.349 46.6875C162.75 46.2057 162.366 45.5091 162.197 44.5977H162.08C161.233 45.5352 160.322 46.2513 159.345 46.7461C158.382 47.2409 157.216 47.4883 155.849 47.4883C154.404 47.4883 153.212 47.0456 152.275 46.1602C151.35 45.2747 150.888 44.1159 150.888 42.6836C150.888 41.9414 150.992 41.2773 151.201 40.6914C151.409 40.1055 151.722 39.5781 152.138 39.1094C152.464 38.7188 152.893 38.3737 153.427 38.0742C153.961 37.7617 154.462 37.5143 154.931 37.332C155.517 37.1107 156.702 36.7005 158.486 36.1016C160.283 35.5026 161.494 35.0339 162.119 34.6953V32.7617C162.119 32.5924 162.08 32.2669 162.001 31.7852C161.936 31.3034 161.787 30.8477 161.552 30.418C161.292 29.9362 160.921 29.5195 160.439 29.168C159.97 28.8034 159.3 28.6211 158.427 28.6211C157.828 28.6211 157.268 28.7253 156.748 28.9336C156.24 29.1289 155.882 29.3372 155.673 29.5586C155.673 29.819 155.732 30.2031 155.849 30.7109C155.979 31.2188 156.044 31.6875 156.044 32.1172C156.044 32.5729 155.836 32.9896 155.419 33.3672C155.016 33.7448 154.449 33.9336 153.72 33.9336C153.069 33.9336 152.587 33.7057 152.275 33.25C151.975 32.7812 151.826 32.2604 151.826 31.6875C151.826 31.0885 152.034 30.5156 152.451 29.9688C152.88 29.4219 153.434 28.9336 154.111 28.5039C154.697 28.1393 155.406 27.8333 156.24 27.5859C157.073 27.3255 157.887 27.1953 158.681 27.1953C159.775 27.1953 160.725 27.2734 161.533 27.4297C162.353 27.5729 163.095 27.8919 163.759 28.3867C164.423 28.8685 164.925 29.526 165.263 30.3594C165.615 31.1797 165.791 32.2409 165.791 33.543C165.791 35.4049 165.771 37.0586 165.732 38.5039C165.693 39.9362 165.673 41.5052 165.673 43.2109C165.673 43.7188 165.758 44.1224 165.927 44.4219C166.11 44.7214 166.383 44.9753 166.748 45.1836C166.943 45.3008 167.249 45.3659 167.666 45.3789C168.095 45.3919 168.531 45.3984 168.974 45.3984V46.6484ZM162.158 36.3359C161.051 36.6615 160.081 36.9805 159.248 37.293C158.414 37.6055 157.639 37.9961 156.923 38.4648C156.272 38.9076 155.758 39.4349 155.38 40.0469C155.003 40.6458 154.814 41.362 154.814 42.1953C154.814 43.276 155.094 44.0703 155.654 44.5781C156.227 45.0859 156.949 45.3398 157.822 45.3398C158.746 45.3398 159.56 45.1185 160.263 44.6758C160.966 44.2201 161.559 43.6862 162.041 43.0742L162.158 36.3359ZM169.423 53.2891C169.423 52.638 169.599 52.1042 169.951 51.6875C170.315 51.2839 170.764 51.082 171.298 51.082C171.715 51.082 172.073 51.1602 172.373 51.3164C172.672 51.4727 172.939 51.6745 173.173 51.9219C173.369 52.1172 173.577 52.3841 173.798 52.7227C174.02 53.0612 174.195 53.3411 174.326 53.5625C174.977 53.2109 175.751 52.293 176.65 50.8086C177.561 49.3242 178.219 48.0221 178.623 46.9023C177.386 43.8164 176.266 41.056 175.263 38.6211C174.261 36.1862 173.212 33.6667 172.119 31.0625C171.871 30.4635 171.455 30.0013 170.869 29.6758C170.283 29.3372 169.697 29.1224 169.111 29.0312V27.7422H177.9V29.1094C177.509 29.1224 177.041 29.207 176.494 29.3633C175.947 29.5065 175.673 29.6758 175.673 29.8711C175.673 29.9492 175.699 30.0794 175.751 30.2617C175.817 30.444 175.888 30.6328 175.966 30.8281C176.461 32.1172 177.216 33.9792 178.232 36.4141C179.248 38.8359 180.035 40.776 180.595 42.2344C181.181 40.8411 181.787 39.4023 182.412 37.918C183.05 36.4206 183.759 34.6562 184.541 32.625C184.632 32.3776 184.762 32.0391 184.931 31.6094C185.1 31.1667 185.185 30.7891 185.185 30.4766C185.185 30.138 184.886 29.8255 184.287 29.5391C183.701 29.2396 183.141 29.0573 182.607 28.9922V27.7422H189.755V28.9531C189.365 29.0182 188.85 29.2461 188.212 29.6367C187.574 30.0143 187.099 30.5547 186.787 31.2578C185.237 34.8516 183.857 38.1263 182.646 41.082C181.448 44.0378 180.537 46.2122 179.912 47.6055C179.091 49.4284 178.356 50.8477 177.705 51.8633C177.067 52.8919 176.442 53.6992 175.83 54.2852C175.231 54.832 174.684 55.1966 174.189 55.3789C173.707 55.5742 173.206 55.6719 172.685 55.6719C171.669 55.6719 170.869 55.431 170.283 54.9492C169.71 54.4674 169.423 53.9141 169.423 53.2891ZM196.748 21.1211C196.748 21.9805 196.559 22.7682 196.181 23.4844C195.817 24.1875 195.374 24.7995 194.853 25.3203C194.332 25.8542 193.759 26.3359 193.134 26.7656C192.509 27.1823 192.008 27.4883 191.63 27.6836L190.966 26.5312C191.5 26.2188 192.008 25.8997 192.49 25.5742C192.985 25.2357 193.362 24.9167 193.623 24.6172C193.974 24.2266 194.254 23.8229 194.462 23.4062C194.671 22.9766 194.801 22.4167 194.853 21.7266H193.916C193.095 21.7266 192.457 21.5182 192.001 21.1016C191.546 20.6849 191.318 20.1055 191.318 19.3633C191.318 18.8294 191.526 18.3281 191.943 17.8594C192.36 17.3776 192.926 17.1367 193.642 17.1367C194.749 17.1367 195.543 17.5078 196.025 18.25C196.507 18.9792 196.748 19.9362 196.748 21.1211ZM212.353 37.5664C212.887 38.0352 213.297 38.5755 213.583 39.1875C213.87 39.7995 214.013 40.5482 214.013 41.4336C214.013 43.2174 213.343 44.6758 212.001 45.8086C210.673 46.9414 208.948 47.5078 206.826 47.5078C205.706 47.5078 204.671 47.306 203.72 46.9023C202.783 46.4987 202.112 46.1276 201.708 45.7891L201.318 47.0586H199.853L199.658 40.3594H201.005C201.11 40.8672 201.331 41.4596 201.669 42.1367C202.008 42.8138 202.418 43.4258 202.9 43.9727C203.408 44.5456 204.013 45.0273 204.716 45.418C205.432 45.8086 206.233 46.0039 207.119 46.0039C208.369 46.0039 209.332 45.724 210.009 45.1641C210.686 44.5911 211.025 43.7773 211.025 42.7227C211.025 42.1758 210.914 41.707 210.693 41.3164C210.485 40.9128 210.172 40.5612 209.755 40.2617C209.326 39.9622 208.798 39.6953 208.173 39.4609C207.548 39.2135 206.852 38.9727 206.083 38.7383C205.472 38.556 204.788 38.3086 204.033 37.9961C203.291 37.6706 202.653 37.293 202.119 36.8633C201.546 36.4076 201.077 35.8477 200.712 35.1836C200.348 34.5195 200.166 33.7383 200.166 32.8398C200.166 31.2643 200.751 29.9297 201.923 28.8359C203.095 27.7422 204.664 27.1953 206.63 27.1953C207.386 27.1953 208.154 27.293 208.935 27.4883C209.729 27.6836 210.374 27.918 210.869 28.1914L211.318 27.1758H212.724L213.017 33.3672H211.669C211.396 31.987 210.804 30.8672 209.892 30.0078C208.994 29.1354 207.893 28.6992 206.591 28.6992C205.524 28.6992 204.684 28.9661 204.072 29.5C203.46 30.0339 203.154 30.6784 203.154 31.4336C203.154 32.0195 203.251 32.5078 203.447 32.8984C203.655 33.2891 203.961 33.6211 204.365 33.8945C204.755 34.1549 205.244 34.4023 205.83 34.6367C206.429 34.8581 207.164 35.112 208.037 35.3984C208.896 35.6719 209.703 35.9909 210.458 36.3555C211.227 36.7201 211.858 37.1237 212.353 37.5664ZM249.619 26.8047H248.271C248.154 26.3359 247.939 25.7826 247.626 25.1445C247.327 24.4935 246.988 23.8815 246.611 23.3086C246.22 22.7096 245.791 22.1888 245.322 21.7461C244.866 21.2904 244.423 21.0299 243.994 20.9648C243.59 20.9128 243.082 20.8737 242.47 20.8477C241.858 20.8216 241.292 20.8086 240.771 20.8086H239.638V42.9766C239.638 43.4062 239.729 43.8034 239.912 44.168C240.094 44.5195 240.413 44.793 240.869 44.9883C241.103 45.0794 241.591 45.2031 242.333 45.3594C243.089 45.5156 243.675 45.6003 244.091 45.6133V47H231.005V45.6133C231.37 45.5872 231.923 45.5352 232.666 45.457C233.421 45.3789 233.942 45.2812 234.228 45.1641C234.658 44.9948 234.97 44.7539 235.166 44.4414C235.374 44.1159 235.478 43.6862 235.478 43.1523V20.8086H234.345C233.942 20.8086 233.44 20.8216 232.841 20.8477C232.242 20.8607 231.669 20.8997 231.123 20.9648C230.693 21.0169 230.244 21.2773 229.775 21.7461C229.319 22.2018 228.896 22.7227 228.505 23.3086C228.115 23.8945 227.77 24.5195 227.47 25.1836C227.171 25.8346 226.962 26.375 226.845 26.8047H225.478V19.2852H249.619V26.8047ZM266.103 30.2227C266.103 30.8867 265.94 31.4792 265.615 32C265.289 32.5078 264.788 32.7617 264.111 32.7617C263.382 32.7617 262.822 32.5729 262.431 32.1953C262.054 31.8177 261.865 31.401 261.865 30.9453C261.865 30.6589 261.884 30.3984 261.923 30.1641C261.975 29.9297 262.021 29.6953 262.06 29.4609C261.448 29.4609 260.732 29.7083 259.912 30.2031C259.091 30.6979 258.395 31.401 257.822 32.3125V43.5234C257.822 43.9792 257.906 44.3503 258.076 44.6367C258.258 44.9232 258.538 45.138 258.916 45.2812C259.241 45.4115 259.658 45.5091 260.166 45.5742C260.686 45.6393 261.136 45.6849 261.513 45.7109V47H251.357V45.7109C251.656 45.6849 251.962 45.6589 252.275 45.6328C252.6 45.6068 252.88 45.5547 253.115 45.4766C253.479 45.3594 253.746 45.1576 253.916 44.8711C254.098 44.5716 254.189 44.1875 254.189 43.7188V31.8242C254.189 31.4206 254.091 31.0234 253.896 30.6328C253.714 30.2422 253.453 29.9297 253.115 29.6953C252.867 29.5391 252.574 29.4284 252.236 29.3633C251.897 29.2852 251.533 29.2331 251.142 29.207V27.9375L257.548 27.5078L257.822 27.7812V30.4961H257.919C258.727 29.4414 259.625 28.6406 260.615 28.0938C261.604 27.5469 262.509 27.2734 263.33 27.2734C264.15 27.2734 264.814 27.5404 265.322 28.0742C265.843 28.6081 266.103 29.3242 266.103 30.2227ZM277.119 47H267.802V45.7109C268.102 45.6849 268.408 45.6589 268.72 45.6328C269.046 45.6068 269.326 45.5547 269.56 45.4766C269.925 45.3594 270.192 45.1576 270.361 44.8711C270.543 44.5716 270.634 44.1875 270.634 43.7188V31.8242C270.634 31.4076 270.537 31.0299 270.341 30.6914C270.159 30.3398 269.899 30.0469 269.56 29.8125C269.313 29.6562 268.955 29.526 268.486 29.4219C268.017 29.3047 267.587 29.2331 267.197 29.207V27.9375L273.994 27.5078L274.267 27.7812V43.4844C274.267 43.9401 274.352 44.3177 274.521 44.6172C274.703 44.9167 274.983 45.138 275.361 45.2812C275.647 45.3984 275.927 45.4961 276.201 45.5742C276.474 45.6393 276.78 45.6849 277.119 45.7109V47ZM274.658 19.9102C274.658 20.6523 274.41 21.3034 273.916 21.8633C273.434 22.4102 272.835 22.6836 272.119 22.6836C271.455 22.6836 270.875 22.4232 270.38 21.9023C269.899 21.3685 269.658 20.763 269.658 20.0859C269.658 19.3698 269.899 18.7448 270.38 18.2109C270.875 17.6771 271.455 17.4102 272.119 17.4102C272.861 17.4102 273.466 17.6641 273.935 18.1719C274.417 18.6667 274.658 19.2461 274.658 19.9102ZM299.033 37.3516C299.033 40.2422 298.121 42.6706 296.298 44.6367C294.475 46.6029 292.36 47.5859 289.951 47.5859C288.896 47.5859 287.854 47.4232 286.826 47.0977C285.81 46.7721 284.853 46.3359 283.955 45.7891L282.509 48.0352L281.298 47.7617C281.363 46.7982 281.409 45.6393 281.435 44.2852C281.461 42.931 281.474 41.6224 281.474 40.3594V21.2969C281.474 20.8542 281.37 20.4115 281.162 19.9688C280.966 19.526 280.712 19.207 280.4 19.0117C280.153 18.8424 279.736 18.7188 279.15 18.6406C278.577 18.5495 278.115 18.4909 277.763 18.4648V17.2148L284.833 16.7656L285.107 17.0586V29.7539L285.244 29.793C286.051 28.9336 286.93 28.2891 287.88 27.8594C288.844 27.4297 289.788 27.2148 290.712 27.2148C293.082 27.2148 295.061 28.1523 296.65 30.0273C298.238 31.9023 299.033 34.3438 299.033 37.3516ZM294.951 37.4883C294.951 36.5247 294.847 35.5417 294.638 34.5391C294.43 33.5365 294.104 32.6641 293.662 31.9219C293.219 31.1667 292.639 30.5547 291.923 30.0859C291.207 29.6172 290.348 29.3828 289.345 29.3828C288.434 29.3828 287.633 29.5651 286.943 29.9297C286.266 30.2812 285.654 30.763 285.107 31.375V42.5859C285.185 42.8984 285.335 43.263 285.556 43.6797C285.791 44.0964 286.103 44.4935 286.494 44.8711C286.884 45.2357 287.327 45.5352 287.822 45.7695C288.317 45.9909 288.922 46.1016 289.638 46.1016C291.227 46.1016 292.509 45.3333 293.486 43.7969C294.462 42.2604 294.951 40.1576 294.951 37.4883ZM322.548 46.6484L316.279 47.0781L315.986 46.8047V44.3633H315.869C315.556 44.6888 315.205 45.0404 314.814 45.418C314.423 45.7826 313.974 46.1146 313.466 46.4141C312.88 46.7656 312.314 47.0326 311.767 47.2148C311.22 47.3971 310.445 47.4883 309.443 47.4883C307.737 47.4883 306.435 46.9349 305.537 45.8281C304.651 44.7083 304.208 43.0872 304.208 40.9648V31.7461C304.208 31.2773 304.117 30.8867 303.935 30.5742C303.766 30.2487 303.512 29.9688 303.173 29.7344C302.939 29.5781 302.646 29.4674 302.294 29.4023C301.943 29.3242 301.572 29.2721 301.181 29.2461V27.9766L307.607 27.5078L307.9 27.7812V41.1602C307.9 42.5534 308.212 43.6016 308.837 44.3047C309.462 45.0078 310.211 45.3594 311.083 45.3594C311.8 45.3594 312.438 45.2487 312.998 45.0273C313.557 44.806 314.026 44.5456 314.404 44.2461C314.755 43.9727 315.061 43.6862 315.322 43.3867C315.595 43.0742 315.804 42.7878 315.947 42.5273V31.6094C315.947 31.1797 315.856 30.8021 315.673 30.4766C315.491 30.138 315.237 29.8516 314.912 29.6172C314.677 29.4609 314.326 29.3698 313.857 29.3438C313.401 29.3047 312.887 29.2721 312.314 29.2461V27.9766L319.306 27.5078L319.599 27.7812V43.0742C319.599 43.5169 319.69 43.8945 319.873 44.207C320.055 44.5195 320.309 44.7865 320.634 45.0078C320.869 45.151 321.149 45.2487 321.474 45.3008C321.8 45.3398 322.158 45.3659 322.548 45.3789V46.6484ZM346.181 47H336.748V45.7109C337.047 45.6849 337.373 45.6589 337.724 45.6328C338.089 45.6068 338.388 45.5547 338.623 45.4766C338.987 45.3594 339.254 45.1576 339.423 44.8711C339.606 44.5716 339.697 44.1875 339.697 43.7188V33.8164C339.697 32.4492 339.371 31.3945 338.72 30.6523C338.082 29.9102 337.301 29.5391 336.376 29.5391C335.686 29.5391 335.055 29.6497 334.482 29.8711C333.909 30.0794 333.401 30.3398 332.958 30.6523C332.529 30.9518 332.184 31.2773 331.923 31.6289C331.676 31.9674 331.494 32.2409 331.376 32.4492V43.5234C331.376 43.9661 331.468 44.3307 331.65 44.6172C331.832 44.9036 332.106 45.125 332.47 45.2812C332.744 45.4115 333.037 45.5091 333.349 45.5742C333.675 45.6393 334.007 45.6849 334.345 45.7109V47H324.912V45.7109C325.211 45.6849 325.517 45.6589 325.83 45.6328C326.155 45.6068 326.435 45.5547 326.669 45.4766C327.034 45.3594 327.301 45.1576 327.47 44.8711C327.653 44.5716 327.744 44.1875 327.744 43.7188V31.8242C327.744 31.3815 327.646 30.9779 327.451 30.6133C327.268 30.2357 327.008 29.9297 326.669 29.6953C326.422 29.5391 326.129 29.4284 325.791 29.3633C325.452 29.2852 325.087 29.2331 324.697 29.207V27.9375L331.103 27.5078L331.376 27.7812V30.4961H331.474C331.787 30.1836 332.177 29.8125 332.646 29.3828C333.115 28.9401 333.557 28.582 333.974 28.3086C334.456 27.9961 335.029 27.7357 335.693 27.5273C336.357 27.319 337.106 27.2148 337.939 27.2148C339.788 27.2148 341.155 27.7943 342.041 28.9531C342.939 30.099 343.388 31.6289 343.388 33.543V43.5625C343.388 44.0182 343.466 44.3893 343.623 44.6758C343.779 44.9492 344.046 45.1641 344.423 45.3203C344.736 45.4505 345.003 45.5417 345.224 45.5938C345.458 45.6458 345.778 45.6849 346.181 45.7109V47ZM365.654 42.4688C364.847 44.0052 363.766 45.2292 362.412 46.1406C361.057 47.0521 359.501 47.5078 357.744 47.5078C356.194 47.5078 354.833 47.2344 353.662 46.6875C352.503 46.1406 351.546 45.3984 350.791 44.4609C350.035 43.5234 349.469 42.4297 349.091 41.1797C348.727 39.9297 348.544 38.6081 348.544 37.2148C348.544 35.9648 348.74 34.7409 349.13 33.543C349.534 32.332 350.12 31.2448 350.888 30.2812C351.63 29.3568 352.548 28.6146 353.642 28.0547C354.749 27.4818 355.986 27.1953 357.353 27.1953C358.759 27.1953 359.964 27.4167 360.966 27.8594C361.969 28.3021 362.783 28.9076 363.408 29.6758C364.007 30.4049 364.449 31.2643 364.736 32.2539C365.035 33.2435 365.185 34.3177 365.185 35.4766V36.7656H352.431C352.431 38.0286 352.548 39.1745 352.783 40.2031C353.03 41.2318 353.414 42.1367 353.935 42.918C354.443 43.6732 355.107 44.2721 355.927 44.7148C356.748 45.1445 357.724 45.3594 358.857 45.3594C360.016 45.3594 361.012 45.0924 361.845 44.5586C362.692 44.0117 363.505 43.0352 364.287 41.6289L365.654 42.4688ZM361.337 35.125C361.337 34.3958 361.272 33.6146 361.142 32.7812C361.025 31.9479 360.83 31.2513 360.556 30.6914C360.257 30.0924 359.847 29.6042 359.326 29.2266C358.805 28.849 358.134 28.6602 357.314 28.6602C355.947 28.6602 354.807 29.2331 353.896 30.3789C352.998 31.5117 352.509 33.0938 352.431 35.125H361.337Z" fill="#C8C8C8"/>
<path d="M8.26423 37.5C23.0642 58.7 37.7642 79.5 50.2642 60.5C34.664 71.7 25.0977 44.1667 22.2645 29L36.2645 23.5L28.7643 11.5C4.26453 24 -9.23559 41.5 7.26423 52C2.06423 43.6 5.76423 38.8333 8.26423 37.5Z" fill="#C8C8C8"/>
<path d="M59.7646 30.4651C44.9646 9.26509 30.2646 -11.5349 17.7646 7.46509C33.3648 -3.73491 42.9311 23.7984 45.7643 38.9651L31.7643 44.4651L39.2645 56.4651C63.7643 43.9651 77.2644 26.4651 60.7646 15.9651C65.9646 24.3651 62.2646 29.1318 59.7646 30.4651Z" fill="black"/>
</svg>
